# xmcd CD database file
# Copyright (C) 1993-1998 Ti Kan
# Generated: Tue Apr 7 22:21:13 1998 by KSCD
# 
# Track frame offsets:
#       150
#       30720
#       60769
#       87715
#       115752
#       136455
#       156287
#       186484
#       222210
#       243019
#       274367
#       309957
#
# Disc length: 4396 seconds
#
# Revision: 2
# Processed by: cddbd v1.4b41PL1 Copyright (c) Steve Scherf et al.
# Submitted via: Kscd 0.8.0
#
DISCID=a6112a0c
DTITLE=Mick Pini Band - Ain't No Foolin'
DYEAR=1900
DGENRE=
TTITLE0=Green Onions and Help Me
TTITLE1=Ain't No Foolin'
TTITLE2=Your Love Can't Be Beat
TTITLE3=Reconsider Baby
TTITLE4=Ramblin'
TTITLE5=Watch Out
TTITLE6=What Makes A Woman
TTITLE7=Big Legged Woman
TTITLE8=Feel So Bad
TTITLE9=Out Of Reach
TTITLE10=Hideaway - Final Theme
TTITLE11=Blues How Do You Do
EXTD=1997 Stormy Monday Records
EXTT0=
EXTT1=
EXTT2=
EXTT3=
EXTT4=
EXTT5=(live)
EXTT6=(live)
EXTT7=(live)
EXTT8=(live)
EXTT9=(live)
EXTT10=
EXTT11=
PLAYORDER=
